<svg width="24" height="24" viewBox="0 0 24 24" fill="none" xmlns="http://www.w3.org/2000/svg">
<path d="M16.3125 0.0476074H7.6875C3.71856 0.0476074 0.5 3.26617 0.5 7.23511V15.8601C0.5 19.829 3.71856 23.0476 7.6875 23.0476H16.3125C20.2814 23.0476 23.5 19.829 23.5 15.8601V7.23511C23.5 3.26617 20.2814 0.0476074 16.3125 0.0476074ZM21.3438 15.8601C21.3438 18.6345 19.0869 20.8914 16.3125 20.8914H7.6875C4.91313 20.8914 2.65625 18.6345 2.65625 15.8601V7.23511C2.65625 4.46073 4.91313 2.20386 7.6875 2.20386H16.3125C19.0869 2.20386 21.3438 4.46073 21.3438 7.23511V15.8601Z" fill="#3ED562"/>
<path d="M12 5.79761C8.82456 5.79761 6.25 8.37217 6.25 11.5476C6.25 14.723 8.82456 17.2976 12 17.2976C15.1754 17.2976 17.75 14.723 17.75 11.5476C17.75 8.37217 15.1754 5.79761 12 5.79761ZM12 15.1414C10.0191 15.1414 8.40625 13.5285 8.40625 11.5476C8.40625 9.5653 10.0191 7.95386 12 7.95386C13.9809 7.95386 15.5938 9.5653 15.5938 11.5476C15.5938 13.5285 13.9809 15.1414 12 15.1414Z" fill="#3ED562"/>
<path d="M18.1812 6.1324C18.6043 6.1324 18.9474 5.78937 18.9474 5.36621C18.9474 4.94306 18.6043 4.60003 18.1812 4.60003C17.758 4.60003 17.415 4.94306 17.415 5.36621C17.415 5.78937 17.758 6.1324 18.1812 6.1324Z" fill="#3ED562"/>
</svg>
