<svg width="24" height="21" viewBox="0 0 24 21" fill="none" xmlns="http://www.w3.org/2000/svg">
<path d="M23.5 2.8676C22.6447 3.27165 21.7333 3.53946 20.7831 3.6695C21.7606 3.04098 22.5067 2.05331 22.8574 0.862838C21.9461 1.44801 20.9398 1.86135 19.8674 2.09201C19.0021 1.09969 17.7687 0.485107 16.4232 0.485107C13.8127 0.485107 11.7111 2.76697 11.7111 5.56435C11.7111 5.96685 11.7427 6.35387 11.8203 6.72231C7.90025 6.51641 4.43156 4.49308 2.10137 1.41086C1.69456 2.17096 1.45594 3.04098 1.45594 3.97757C1.45594 5.73618 2.29688 7.2951 3.55037 8.19763C2.79281 8.18215 2.04962 7.94529 1.42 7.5722C1.42 7.58768 1.42 7.60781 1.42 7.62793C1.42 10.0956 3.05444 12.1452 5.19775 12.6174C4.81394 12.7304 4.39563 12.7846 3.9615 12.7846C3.65963 12.7846 3.35487 12.766 3.06881 12.6979C3.67975 14.7088 5.41338 16.1873 7.47475 16.2352C5.8705 17.5867 3.83356 18.401 1.62844 18.401C1.24175 18.401 0.870875 18.3824 0.5 18.3313C2.58869 19.7819 5.06406 20.6101 7.7335 20.6101C16.4102 20.6101 21.154 12.8697 21.154 6.16036C21.154 5.93589 21.1468 5.71916 21.1367 5.50397C22.0726 4.78876 22.8589 3.89552 23.5 2.8676Z" fill="#3ED562"/>
</svg>
